<svg width="48" height="42" viewBox="0 0 48 42" fill="none" xmlns="http://www.w3.org/2000/svg">
<path d="M43.5 0H4.5C2.01469 0 0 2.01469 0 4.5V37.5C0 39.9853 2.01469 42 4.5 42H43.5C45.9853 42 48 39.9853 48 37.5V4.5C48 2.01469 45.9853 0 43.5 0ZM42.9375 37.5H5.0625C4.91332 37.5 4.77024 37.4407 4.66475 37.3352C4.55926 37.2298 4.5 37.0867 4.5 36.9375V5.0625C4.5 4.91332 4.55926 4.77024 4.66475 4.66475C4.77024 4.55926 4.91332 4.5 5.0625 4.5H42.9375C43.0867 4.5 43.2298 4.55926 43.3352 4.66475C43.4407 4.77024 43.5 4.91332 43.5 5.0625V36.9375C43.5 37.0867 43.4407 37.2298 43.3352 37.3352C43.2298 37.4407 43.0867 37.5 42.9375 37.5ZM39 28.875V31.125C39 31.7463 38.4963 32.25 37.875 32.25H19.125C18.5037 32.25 18 31.7463 18 31.125V28.875C18 28.2537 18.5037 27.75 19.125 27.75H37.875C38.4963 27.75 39 28.2537 39 28.875ZM39 19.875V22.125C39 22.7463 38.4963 23.25 37.875 23.25H19.125C18.5037 23.25 18 22.7463 18 22.125V19.875C18 19.2537 18.5037 18.75 19.125 18.75H37.875C38.4963 18.75 39 19.2537 39 19.875ZM39 10.875V13.125C39 13.7463 38.4963 14.25 37.875 14.25H19.125C18.5037 14.25 18 13.7463 18 13.125V10.875C18 10.2537 18.5037 9.75 19.125 9.75H37.875C38.4963 9.75 39 10.2537 39 10.875ZM15.375 12C15.375 13.8639 13.8639 15.375 12 15.375C10.1361 15.375 8.625 13.8639 8.625 12C8.625 10.1361 10.1361 8.625 12 8.625C13.8639 8.625 15.375 10.1361 15.375 12ZM15.375 21C15.375 22.8639 13.8639 24.375 12 24.375C10.1361 24.375 8.625 22.8639 8.625 21C8.625 19.1361 10.1361 17.625 12 17.625C13.8639 17.625 15.375 19.1361 15.375 21ZM15.375 30C15.375 31.8639 13.8639 33.375 12 33.375C10.1361 33.375 8.625 31.8639 8.625 30C8.625 28.1361 10.1361 26.625 12 26.625C13.8639 26.625 15.375 28.1361 15.375 30Z" fill="black"/>
</svg>
