<svg width="25" height="21" viewBox="0 0 25 21" fill="none" xmlns="http://www.w3.org/2000/svg">
<path d="M13.9163 0.559592C14.2512 0.201285 14.7053 0 15.1788 0C15.6523 0 16.1064 0.201285 16.4413 0.559592L24.4772 9.16028C24.8119 9.51869 25 10.0047 25 10.5115C25 11.0183 24.8119 11.5044 24.4772 11.8628L16.4413 20.4635C16.1045 20.8116 15.6534 21.0043 15.1852 20.9999C14.717 20.9956 14.2691 20.7946 13.938 20.4402C13.6069 20.0858 13.4191 19.6065 13.4151 19.1053C13.411 18.6042 13.591 18.1214 13.9163 17.761L18.7503 12.4228H1.78574C1.31213 12.4228 0.857923 12.2214 0.523032 11.863C0.18814 11.5046 0 11.0184 0 10.5115C0 10.0046 0.18814 9.5185 0.523032 9.16007C0.857923 8.80164 1.31213 8.60028 1.78574 8.60028H18.7503L13.9163 3.26212C13.5815 2.9037 13.3934 2.41765 13.3934 1.91085C13.3934 1.40406 13.5815 0.918007 13.9163 0.559592Z" fill="black"/>
</svg>
