<svg width="32" height="32" viewBox="0 0 32 32" fill="none" xmlns="http://www.w3.org/2000/svg">
<path d="M10.6667 12.667C10.2246 12.667 9.80072 12.8426 9.48816 13.1551C9.17559 13.4677 9 13.8916 9 14.3337C9 14.7757 9.17559 15.1996 9.48816 15.5122C9.80072 15.8247 10.2246 16.0003 10.6667 16.0003C11.1087 16.0003 11.5326 15.8247 11.8452 15.5122C12.1577 15.1996 12.3333 14.7757 12.3333 14.3337C12.3333 13.8916 12.1577 13.4677 11.8452 13.1551C11.5326 12.8426 11.1087 12.667 10.6667 12.667ZM16 12.667C15.558 12.667 15.134 12.8426 14.8215 13.1551C14.5089 13.4677 14.3333 13.8916 14.3333 14.3337C14.3333 14.7757 14.5089 15.1996 14.8215 15.5122C15.134 15.8247 15.558 16.0003 16 16.0003C16.442 16.0003 16.866 15.8247 17.1785 15.5122C17.4911 15.1996 17.6667 14.7757 17.6667 14.3337C17.6667 13.8916 17.4911 13.4677 17.1785 13.1551C16.866 12.8426 16.442 12.667 16 12.667ZM19.6667 14.3337C19.6667 13.8916 19.8423 13.4677 20.1548 13.1551C20.4674 12.8426 20.8913 12.667 21.3333 12.667C21.7754 12.667 22.1993 12.8426 22.5118 13.1551C22.8244 13.4677 23 13.8916 23 14.3337C23 14.7757 22.8244 15.1996 22.5118 15.5122C22.1993 15.8247 21.7754 16.0003 21.3333 16.0003C20.8913 16.0003 20.4674 15.8247 20.1548 15.5122C19.8423 15.1996 19.6667 14.7757 19.6667 14.3337Z" fill="black"/>
<path fill-rule="evenodd" clip-rule="evenodd" d="M22.2387 6.13496C18.485 5.81463 14.7117 5.79598 10.9549 6.07917L10.686 6.10009C8.95877 6.23057 7.34452 7.0094 6.16655 8.2806C4.98858 9.55181 4.33385 11.2215 4.3335 12.9554V24.8347C4.33366 25.0156 4.38065 25.1933 4.46989 25.3505C4.55913 25.5078 4.68756 25.6391 4.84267 25.7319C4.99777 25.8246 5.17424 25.8755 5.35485 25.8796C5.53547 25.8837 5.71406 25.8409 5.87321 25.7553L11.3214 22.8249C11.5754 22.6882 11.8593 22.6168 12.1477 22.617H24.6549C26.2322 22.617 27.5838 21.4873 27.8667 19.9349C28.4408 16.7869 28.4853 13.5649 28.0004 10.4016L27.8583 9.46847C27.732 8.64411 27.3324 7.8862 26.7239 7.31653C26.1153 6.74686 25.3332 6.3985 24.503 6.32744L22.2387 6.13496ZM11.1138 8.16575C14.7591 7.88997 18.4207 7.9077 22.0632 8.21875L24.326 8.41263C25.0729 8.47679 25.6804 9.04446 25.7933 9.78648L25.9368 10.7182C26.3847 13.652 26.3424 16.6398 25.8114 19.5597C25.7629 19.8308 25.6206 20.0762 25.4093 20.2527C25.1981 20.4292 24.9314 20.5256 24.6563 20.5249H12.1477C11.5145 20.525 10.8912 20.6822 10.3335 20.9824L6.4236 23.0857V12.9554C6.42367 11.7492 6.87895 10.5875 7.69827 9.70297C8.51759 8.81844 9.64048 8.27636 10.8421 8.18528L11.1138 8.16575Z" fill="black"/>
</svg>
