<svg width="43" height="42" viewBox="0 0 43 42" fill="none" xmlns="http://www.w3.org/2000/svg">
<path d="M17.9167 0C27.812 0 35.8333 7.83475 35.8333 17.5C35.8333 27.1652 27.812 35 17.9167 35C8.02129 35 0 27.1652 0 17.5C0 7.83475 8.02129 0 17.9167 0ZM17.9167 3.5C14.1152 3.5 10.4695 4.975 7.78147 7.60051C5.09345 10.226 3.58333 13.787 3.58333 17.5C3.58333 21.213 5.09345 24.774 7.78147 27.3995C10.4695 30.025 14.1152 31.5 17.9167 31.5C21.7181 31.5 25.3638 30.025 28.0519 27.3995C30.7399 24.774 32.25 21.213 32.25 17.5C32.25 13.787 30.7399 10.226 28.0519 7.60051C25.3638 4.975 21.7181 3.5 17.9167 3.5ZM17.9167 7C18.3555 7.00006 18.7791 7.15742 19.107 7.44225C19.4349 7.72708 19.6444 8.11956 19.6958 8.54525L19.7083 8.75V16.7755L24.5584 21.5128C24.8797 21.8277 25.0663 22.2503 25.0802 22.6947C25.0941 23.1391 24.9342 23.572 24.6332 23.9055C24.3321 24.239 23.9124 24.448 23.4592 24.4902C23.0061 24.5324 22.5535 24.4045 22.1934 24.1325L22.025 23.9872L16.65 18.7372C16.3715 18.465 16.1927 18.1108 16.1411 17.7292L16.125 17.5V8.75C16.125 8.28587 16.3138 7.84075 16.6498 7.51256C16.9858 7.18437 17.4415 7 17.9167 7Z" fill="black"/>
</svg>
