<svg width="37" height="37" viewBox="0 0 37 37" fill="none" xmlns="http://www.w3.org/2000/svg">
<path fill-rule="evenodd" clip-rule="evenodd" d="M6.9375 31.2188C6.63084 31.2188 6.33675 31.0969 6.11991 30.8801C5.90307 30.6633 5.78125 30.3692 5.78125 30.0625V6.9375C5.78125 6.63084 5.90307 6.33675 6.11991 6.11991C6.33675 5.90307 6.63084 5.78125 6.9375 5.78125H28.3281C28.7881 5.78125 29.2293 5.59852 29.5545 5.27326C29.8798 4.94801 30.0625 4.50686 30.0625 4.04688C30.0625 3.58689 29.8798 3.14575 29.5545 2.82049C29.2293 2.49523 28.7881 2.3125 28.3281 2.3125H6.9375C5.71087 2.3125 4.53449 2.79978 3.66713 3.66713C2.79978 4.53449 2.3125 5.71087 2.3125 6.9375V30.0625C2.3125 31.2891 2.79978 32.4655 3.66713 33.3329C4.53449 34.2002 5.71087 34.6875 6.9375 34.6875H30.0625C31.2891 34.6875 32.4655 34.2002 33.3329 33.3329C34.2002 32.4655 34.6875 31.2891 34.6875 30.0625V22.5469C34.6875 22.0869 34.5048 21.6457 34.1795 21.3205C33.8543 20.9952 33.4131 20.8125 32.9531 20.8125C32.4931 20.8125 32.052 20.9952 31.7267 21.3205C31.4015 21.6457 31.2187 22.0869 31.2187 22.5469V30.0625C31.2187 30.3692 31.0969 30.6633 30.8801 30.8801C30.6633 31.0969 30.3692 31.2188 30.0625 31.2188H6.9375ZM36.4912 10.8225C36.7976 10.4937 36.9644 10.0589 36.9565 9.60954C36.9485 9.16022 36.7665 8.73152 36.4487 8.41375C36.131 8.09598 35.7023 7.91396 35.253 7.90603C34.8036 7.8981 34.3688 8.06489 34.04 8.37125L21.1871 21.2218L16.8558 16.7448C16.6978 16.5797 16.5087 16.4474 16.2994 16.3556C16.09 16.2638 15.8647 16.2143 15.6361 16.2099C15.4076 16.2055 15.1805 16.2463 14.9678 16.33C14.7551 16.4137 14.5611 16.5386 14.3968 16.6975C14.2325 16.8564 14.1013 17.0463 14.0107 17.2561C13.92 17.4659 13.8717 17.6916 13.8686 17.9201C13.8654 18.1486 13.9075 18.3755 13.9923 18.5878C14.0772 18.8 14.2031 18.9934 14.3629 19.1568L19.9199 24.901C20.0798 25.0668 20.2711 25.1991 20.4827 25.2902C20.6943 25.3813 20.9219 25.4293 21.1522 25.4315C21.3826 25.4336 21.611 25.3899 21.8243 25.3028C22.0375 25.2157 22.2313 25.0869 22.3942 24.9241L36.4912 10.8225Z" fill="black"/>
</svg>
