<svg width="34" height="34" viewBox="0 0 34 34" fill="none" xmlns="http://www.w3.org/2000/svg">
<path d="M8.50008 26.9163H12.7501V19.833C12.7501 19.4316 12.8861 19.0954 13.1581 18.8243C13.4301 18.5533 13.7663 18.4173 14.1667 18.4163H19.8334C20.2348 18.4163 20.5715 18.5523 20.8435 18.8243C21.1155 19.0963 21.251 19.4326 21.2501 19.833V26.9163H25.5001V14.1663L17.0001 7.79134L8.50008 14.1663V26.9163ZM5.66675 26.9163V14.1663C5.66675 13.7177 5.76733 13.2927 5.9685 12.8913C6.16966 12.49 6.44686 12.1594 6.80008 11.8997L15.3001 5.52467C15.7959 5.1469 16.3626 4.95801 17.0001 4.95801C17.6376 4.95801 18.2042 5.1469 18.7001 5.52467L27.2001 11.8997C27.5542 12.1594 27.8319 12.49 28.0331 12.8913C28.2342 13.2927 28.3344 13.7177 28.3334 14.1663V26.9163C28.3334 27.6955 28.0557 28.3628 27.5004 28.9181C26.9451 29.4734 26.2783 29.7506 25.5001 29.7497H19.8334C19.432 29.7497 19.0958 29.6137 18.8247 29.3417C18.5537 29.0697 18.4177 28.7335 18.4167 28.333V21.2497H15.5834V28.333C15.5834 28.7344 15.4474 29.0711 15.1754 29.3431C14.9034 29.6151 14.5672 29.7506 14.1667 29.7497H8.50008C7.72091 29.7497 7.05414 29.4725 6.49975 28.9181C5.94536 28.3637 5.66769 27.6965 5.66675 26.9163Z" fill="black"/>
</svg>
