<svg width="28" height="28" viewBox="0 0 28 28" fill="none" xmlns="http://www.w3.org/2000/svg">
<path d="M4.66659 24.4997C4.02492 24.4997 3.47581 24.2714 3.01925 23.8148C2.5627 23.3583 2.33403 22.8088 2.33325 22.1663V9.33301C2.33325 8.69134 2.56192 8.14223 3.01925 7.68567C3.47659 7.22912 4.0257 7.00045 4.66659 6.99967H9.33325V4.66634C9.33325 4.02467 9.56192 3.47556 10.0193 3.01901C10.4766 2.56245 11.0257 2.33379 11.6666 2.33301H16.3333C16.9749 2.33301 17.5244 2.56167 17.9818 3.01901C18.4391 3.47634 18.6674 4.02545 18.6666 4.66634V6.99967H23.3333C23.9749 6.99967 24.5244 7.22834 24.9818 7.68567C25.4391 8.14301 25.6674 8.69212 25.6666 9.33301V22.1663C25.6666 22.808 25.4383 23.3575 24.9818 23.8148C24.5252 24.2722 23.9757 24.5005 23.3333 24.4997H4.66659ZM4.66659 22.1663H23.3333V9.33301H4.66659V22.1663ZM11.6666 6.99967H16.3333V4.66634H11.6666V6.99967Z" fill="black"/>
</svg>
