<svg width="28" height="28" viewBox="0 0 28 28" fill="none" xmlns="http://www.w3.org/2000/svg">
<path d="M14.0775 8.55566C11.0442 8.55566 8.63306 10.9668 8.63306 14.0001C8.63306 17.0334 11.0442 19.4446 14.0775 19.4446C17.1108 19.4446 19.5219 17.0334 19.5219 14.0001C19.5219 10.9668 17.1108 8.55566 14.0775 8.55566ZM14.0775 17.889C11.8997 17.889 10.1886 16.1779 10.1886 14.0001C10.1886 11.8223 11.8997 10.1112 14.0775 10.1112C16.2553 10.1112 17.9664 11.8223 17.9664 14.0001C17.9664 16.1779 16.2553 17.889 14.0775 17.889Z" fill="black"/>
<path d="M25.5111 11.4334L23.3333 10.7334L22.8667 9.56678L23.9555 7.54455C24.1889 7.07789 24.1111 6.45566 23.7222 6.06678L21.8555 4.20011C21.4667 3.81122 20.8444 3.73344 20.3778 3.96678L18.3555 5.05566L17.1889 4.589L16.4889 2.41122C16.3333 1.94455 15.8667 1.55566 15.3222 1.55566H12.6778C12.1333 1.55566 11.6667 1.94455 11.5889 2.489L10.8889 4.66678C10.4222 4.74455 10.0333 4.90011 9.64443 5.13344L7.62221 4.04455C7.15554 3.81122 6.53332 3.889 6.14443 4.27789L4.27776 6.14455C3.88888 6.53344 3.8111 7.15566 4.04443 7.62233L5.05554 9.56678C4.89999 9.95566 4.74443 10.4223 4.58888 10.8112L2.4111 11.5112C1.94443 11.6668 1.55554 12.1334 1.55554 12.6779V15.3223C1.55554 15.8668 1.94443 16.3334 2.48888 16.489L4.66665 17.189L5.13332 18.3557L4.04443 20.3779C3.8111 20.8446 3.88888 21.4668 4.27776 21.8557L6.14443 23.7223C6.53332 24.1112 7.15554 24.189 7.62221 23.9557L9.64443 22.8668L10.8111 23.3334L11.5111 25.589C11.6667 26.0557 12.1333 26.4446 12.6778 26.4446H15.3222C15.8667 26.4446 16.3333 26.0557 16.4889 25.589L17.1889 23.3334L18.3555 22.8668L20.3778 23.9557C20.8444 24.189 21.4667 24.1112 21.8555 23.7223L23.7222 21.8557C24.1111 21.4668 24.1889 20.8446 23.9555 20.3779L22.8667 18.3557L23.3333 17.189L25.5889 16.489C26.0555 16.3334 26.4444 15.8668 26.4444 15.3223V12.6779C26.4444 12.1334 26.0555 11.589 25.5111 11.4334ZM24.8889 15.089L22.0889 15.9446L22.0111 16.3334L21.3111 17.9668L21.0778 18.3557L22.4778 20.9223L20.9222 22.4779L18.3555 21.0779L17.9667 21.3112C17.4222 21.6223 16.8778 21.8557 16.3333 22.0112L15.9444 22.089L15.0889 24.889H12.9111L12.0555 22.089L11.6667 22.0112L10.0333 21.3112L9.64443 21.0779L7.07776 22.4779L5.52221 20.9223L6.92221 18.3557L6.68888 17.9668C6.37776 17.4223 6.14443 16.8779 5.98888 16.3334L5.9111 15.9446L3.1111 15.089V12.9112L5.75554 12.1334L5.9111 11.7446C6.06665 11.1223 6.29999 10.5779 6.6111 10.0334L6.84443 9.64455L5.52221 7.07789L7.07776 5.52233L9.56665 6.92233L9.95554 6.689C10.5 6.37789 11.0444 6.14455 11.6667 5.989L12.0555 5.83344L12.9111 3.11122H15.0889L15.9444 5.83344L16.3333 5.989C16.8778 6.14455 17.4222 6.37789 17.9667 6.689L18.3555 6.92233L20.9222 5.52233L22.4778 7.07789L21.0778 9.64455L21.3111 10.0334C21.6222 10.5779 21.8555 11.1223 22.0111 11.6668L22.0889 12.0557L24.8889 12.9112V15.089Z" fill="black"/>
</svg>
